<svg width="386" height="333" viewBox="0 0 386 333" fill="none" xmlns="http://www.w3.org/2000/svg">
<path d="M313.065 11.5464C273.615 14.5193 214.404 56.7111 236.876 145.41C259.347 234.109 207.929 248.341 179.411 244.37" stroke="white" stroke-width="1.05"/>
<circle cx="12.6678" cy="12.6678" r="12.1428" transform="matrix(-1 0 0 1 162.779 229.805)" stroke="white" stroke-width="1.05"/>
<path d="M119.017 242.474C87.5394 239.594 24.8144 253.529 25.7357 332.3" stroke="white" stroke-width="1.05"/>
<path d="M222.087 197.56C222.471 209.268 214.371 231.648 178.901 227.502" stroke="white" stroke-width="1.05"/>
<path d="M30.0965 103.915L61.2412 121.897C62.2912 122.503 63.6037 121.745 63.6037 120.533L63.6037 84.5698C63.6037 83.3574 62.2912 82.5996 61.2412 83.2058L30.0965 101.187C29.0465 101.793 29.0465 103.309 30.0965 103.915Z" stroke="#A693FF" stroke-width="3.15"/>
<path d="M5.3874 58.1845L25.3038 69.6832C27.0538 70.6935 29.2413 69.4306 29.2413 67.4099L29.2413 44.4124C29.2413 42.3917 27.0538 41.1287 25.3038 42.1391L5.38741 53.6378C3.63741 54.6482 3.6374 57.1741 5.3874 58.1845Z" stroke="white" stroke-width="1.05"/>
</svg>
